<?xml version="1.0"?>
<svg xmlns="http://www.w3.org/2000/svg" xmlns:xlink="http://www.w3.org/1999/xlink" xmlns:svgjs="http://svgjs.com/svgjs" version="1.1" width="512" height="512" x="0" y="0" viewBox="0 0 512 512" style="enable-background:new 0 0 512 512" xml:space="preserve" class=""><g>
<path xmlns="http://www.w3.org/2000/svg" style="" d="M241.007,134.34L241.007,134.34c-6.793-6.793-16-10.607-25.6-10.607l0,0  c-19.994-0.009-36.198,16.196-36.207,36.19c0,0.009,0,0.009,0,0.017l0,0c-0.009,26.889,4.309,53.598,12.8,79.104l4.267,12.689  l7.484,89.754c0.589,7.151,6.562,12.646,13.739,12.646l0,0c7.245,0.026,13.269-5.572,13.764-12.8  c1.34-20.062,4.463-58.812,6.289-81.135c0.768-9.617,8.806-17.024,18.458-16.998l0,0c9.66,0,17.681,7.441,18.423,17.067  l6.238,81.135c0.555,7.177,6.537,12.723,13.739,12.732h0.137c7.177,0,13.15-5.495,13.747-12.646l7.45-89.754L320,239.044  c8.491-25.506,12.809-52.215,12.8-79.104l0,0c0.009-19.994-16.196-36.198-36.19-36.207c-0.009,0-0.009,0-0.017,0l0,0  c-9.6,0-18.807,3.814-25.6,10.607l0,0C262.716,142.618,249.284,142.618,241.007,134.34z" fill="#e6e6e6" data-original="#e6e6e6"/>
<g xmlns="http://www.w3.org/2000/svg">
	<path style="" d="M203.75,341.487c0.606,7.595,7.253,13.252,14.848,12.646c6.801-0.546,12.186-5.99,12.655-12.8   c0.93-13.952,2.722-36.881,4.343-57.105c-10.684,8.832-22.332,16.427-34.731,22.63L203.75,341.487z" fill="#dedede" data-original="#dedede"/>
	<path style="" d="M318.771,131.507c-7.578,42.334-24.516,82.432-49.579,117.376c3.012,3.072,4.847,7.1,5.188,11.383   l6.238,81.135c0.555,7.194,6.562,12.749,13.781,12.732h0.137c7.177,0,13.15-5.495,13.739-12.646l7.458-89.754L320,239.044   c8.491-25.506,12.809-52.215,12.8-79.104C332.774,148.804,327.595,138.308,318.771,131.507z" fill="#dedede" data-original="#dedede"/>
</g>
<path xmlns="http://www.w3.org/2000/svg" style="" d="M394.607,134.34L394.607,134.34c-6.793-6.793-16-10.607-25.6-10.607l0,0  c-19.994-0.009-36.198,16.196-36.207,36.19c0,0.009,0,0.009,0,0.017l0,0c-0.009,26.889,4.309,53.598,12.8,79.104l4.267,12.689  l7.484,89.754c0.589,7.151,6.562,12.646,13.739,12.646l0,0c7.245,0.026,13.269-5.572,13.764-12.8  c1.34-20.062,4.463-58.812,6.289-81.135c0.768-9.617,8.806-17.024,18.458-16.998l0,0c9.66,0,17.681,7.441,18.423,17.067  l6.238,81.135c0.555,7.177,6.537,12.723,13.739,12.732h0.137c7.177,0,13.15-5.495,13.747-12.646l7.45-89.754l4.267-12.689  c8.491-25.506,12.809-52.215,12.8-79.104l0,0c0.009-19.994-16.196-36.198-36.19-36.207c-0.009,0-0.009,0-0.017,0l0,0  c-9.6,0-18.807,3.814-25.6,10.607l0,0C416.316,142.618,402.884,142.618,394.607,134.34z" fill="#e6e6e6" data-original="#e6e6e6"/>
<g xmlns="http://www.w3.org/2000/svg">
	<path style="" d="M357.35,341.487c0.606,7.595,7.253,13.252,14.848,12.646c6.801-0.546,12.186-5.99,12.655-12.8   c0.93-13.952,2.722-36.881,4.343-57.105c-10.684,8.832-22.332,16.427-34.731,22.63L357.35,341.487z" fill="#dedede" data-original="#dedede"/>
	<path style="" d="M472.371,131.507c-7.578,42.334-24.516,82.432-49.579,117.376c3.012,3.072,4.847,7.1,5.188,11.383   l6.238,81.135c0.555,7.194,6.562,12.749,13.781,12.732h0.137c7.177,0,13.15-5.495,13.739-12.646l7.458-89.754l4.267-12.689   c8.491-25.506,12.809-52.215,12.8-79.104C486.374,148.804,481.195,138.308,472.371,131.507z" fill="#dedede" data-original="#dedede"/>
</g>
<path xmlns="http://www.w3.org/2000/svg" style="" d="M87.407,134.34L87.407,134.34c-6.793-6.793-16-10.607-25.6-10.607l0,0  c-19.994-0.009-36.198,16.196-36.207,36.19c0,0.009,0,0.009,0,0.017l0,0c-0.009,26.889,4.309,53.598,12.8,79.104l4.267,12.689  l7.484,89.754c0.589,7.151,6.562,12.646,13.739,12.646l0,0c7.245,0.026,13.269-5.572,13.764-12.8  c1.34-20.062,4.463-58.812,6.289-81.135c0.768-9.617,8.806-17.024,18.458-16.998l0,0c9.66,0,17.681,7.441,18.423,17.067  l6.238,81.135c0.555,7.177,6.537,12.723,13.739,12.732h0.137c7.177,0,13.15-5.495,13.747-12.646l7.45-89.754l4.267-12.689  c8.491-25.506,12.809-52.215,12.8-79.104l0,0c0.009-19.994-16.196-36.198-36.19-36.207c-0.009,0-0.009,0-0.017,0l0,0  c-9.6,0-18.807,3.814-25.6,10.607l0,0C109.116,142.618,95.684,142.618,87.407,134.34z" fill="#e6e6e6" data-original="#e6e6e6"/>
<g xmlns="http://www.w3.org/2000/svg">
	<path style="" d="M50.15,341.487c0.606,7.595,7.253,13.252,14.848,12.646c6.801-0.546,12.186-5.99,12.655-12.8   c0.93-13.952,2.722-36.881,4.343-57.105c-10.684,8.832-22.332,16.427-34.731,22.63L50.15,341.487z" fill="#dedede" data-original="#dedede"/>
	<path style="" d="M165.171,131.507c-7.578,42.334-24.516,82.432-49.579,117.376c3.012,3.072,4.847,7.1,5.188,11.383   l6.238,81.135c0.555,7.194,6.562,12.749,13.781,12.732h0.137c7.177,0,13.15-5.495,13.739-12.646l7.458-89.754l4.267-12.689   c8.491-25.506,12.809-52.215,12.8-79.104C179.174,148.804,173.995,138.308,165.171,131.507z" fill="#dedede" data-original="#dedede"/>
</g>
<g xmlns="http://www.w3.org/2000/svg">
	<rect y="183.467" style="" width="85.333" height="17.067" fill="#0ca9cc" data-original="#4398d1" class=""/>
	<rect x="119.467" y="183.467" style="" width="110.933" height="17.067" fill="#0ca9cc" data-original="#4398d1" class=""/>
	<rect x="273.067" y="183.467" style="" width="110.933" height="17.067" fill="#0ca9cc" data-original="#4398d1" class=""/>
	<rect x="426.667" y="183.467" style="" width="85.333" height="17.067" fill="#0ca9cc" data-original="#4398d1" class=""/>
</g>
<path xmlns="http://www.w3.org/2000/svg" style="" d="M469.333,251.733l-7.484,89.754c-0.589,7.151-6.562,12.646-13.739,12.646H448  c-7.211,0-13.201-5.547-13.756-12.732l-6.263-81.135c-0.794-10.18-9.685-17.783-19.857-16.998c-9.037,0.7-16.23,7.859-16.99,16.896  c-1.826,22.323-4.949,61.073-6.289,81.135c-0.546,7.595-7.142,13.312-14.737,12.766c-6.767-0.486-12.177-5.82-12.757-12.578  l-6.895-82.688h-0.589c-9.429-9.421-24.704-9.421-34.133,0h-0.589l-6.895,82.688c-0.589,7.151-6.562,12.646-13.739,12.646H294.4  c-7.211,0-13.201-5.547-13.756-12.732l-6.263-81.135c-0.794-10.18-9.685-17.783-19.857-16.998c-9.037,0.7-16.23,7.859-16.99,16.896  c-1.826,22.323-4.949,61.073-6.289,81.135c-0.546,7.595-7.142,13.312-14.737,12.766c-6.767-0.486-12.177-5.82-12.757-12.578  l-6.775-81.22h-0.708c-9.421-9.429-24.704-9.429-34.125-0.009c0,0,0,0-0.009,0.009h-0.708l-6.775,81.22  c-0.589,7.151-6.562,12.646-13.739,12.646H140.8c-7.211,0-13.201-5.547-13.756-12.732l-6.263-81.135  c-0.794-10.18-9.685-17.783-19.857-16.998c-9.037,0.7-16.23,7.859-16.99,16.896c-1.826,22.323-4.949,61.073-6.289,81.135  c-0.546,7.595-7.142,13.312-14.737,12.766c-6.767-0.486-12.177-5.82-12.757-12.578l-7.484-89.754  c-6.255-9.429-18.961-11.998-28.39-5.743c-2.278,1.51-4.233,3.465-5.743,5.743v136.533h494.933V251.733  c-6.255-9.429-18.961-11.998-28.39-5.743C472.798,247.501,470.844,249.455,469.333,251.733z" fill="#f7a6a6" data-original="#f7a6a6"/>
<g xmlns="http://www.w3.org/2000/svg">
	<path style="" d="M273.067,217.6h-34.133c-4.71,0-8.533-3.823-8.533-8.533v-34.133c0-4.71,3.823-8.533,8.533-8.533   h34.133c4.71,0,8.533,3.823,8.533,8.533v34.133C281.6,213.777,277.777,217.6,273.067,217.6z M247.467,200.533h17.067v-17.067   h-17.067V200.533z" fill="#0ca9cc" data-original="#86c8dc" class=""/>
	<path style="" d="M119.467,217.6H85.333c-4.71,0-8.533-3.823-8.533-8.533v-34.133c0-4.71,3.823-8.533,8.533-8.533   h34.133c4.71,0,8.533,3.823,8.533,8.533v34.133C128,213.777,124.177,217.6,119.467,217.6z M93.867,200.533h17.067v-17.067H93.867   V200.533z" fill="#0ca9cc" data-original="#86c8dc" class=""/>
	<path style="" d="M426.667,217.6h-34.133c-4.71,0-8.533-3.823-8.533-8.533v-34.133c0-4.71,3.823-8.533,8.533-8.533   h34.133c4.71,0,8.533,3.823,8.533,8.533v34.133C435.2,213.777,431.377,217.6,426.667,217.6z M401.067,200.533h17.067v-17.067   h-17.067V200.533z" fill="#0ca9cc" data-original="#86c8dc" class=""/>
</g>
<path xmlns="http://www.w3.org/2000/svg" style="" d="M461.85,341.487c-0.589,7.151-6.562,12.646-13.739,12.646H448c-7.211,0-13.201-5.547-13.756-12.732  l-3.584-46.652c-13.918,3.669-28.314,7.04-43.085,10.103c-1.075,13.824-2.082,27.153-2.705,36.446  c-0.546,7.595-7.142,13.312-14.737,12.766c-6.767-0.486-12.177-5.82-12.757-12.578l-2.56-30.396  c-14.686,2.56-29.594,4.89-44.612,6.98l-1.954,23.415c-0.589,7.151-6.562,12.646-13.739,12.646H294.4  c-7.211,0-13.201-5.547-13.756-12.732l-1.485-19.328c-15.667,1.86-31.334,3.499-46.865,4.932c-0.393,5.291-0.751,10.24-1.024,14.293  c-0.546,7.595-7.142,13.312-14.737,12.766c-6.767-0.486-12.177-5.82-12.757-12.578l-0.998-11.947  c-16.111,1.254-31.949,2.304-47.369,3.191l-0.734,8.781c-0.606,7.151-6.588,12.638-13.764,12.621H140.8  c-7.211,0-13.201-5.547-13.756-12.732l-0.555-7.202c-16.947,0.777-33.161,1.357-48.444,1.783c-0.128,1.818-0.265,3.712-0.375,5.316  c-0.546,7.595-7.142,13.312-14.737,12.766c-6.767-0.486-12.177-5.82-12.757-12.578l-0.41-4.838  c-15.172,0.282-29.013,0.427-41.207,0.495v51.123h494.908v-117.99c-11.554,4.983-23.893,9.609-36.838,13.875L461.85,341.487z" fill="#f59a9a" data-original="#f59a9a" class=""/>
<g xmlns="http://www.w3.org/2000/svg">
</g>
<g xmlns="http://www.w3.org/2000/svg">
</g>
<g xmlns="http://www.w3.org/2000/svg">
</g>
<g xmlns="http://www.w3.org/2000/svg">
</g>
<g xmlns="http://www.w3.org/2000/svg">
</g>
<g xmlns="http://www.w3.org/2000/svg">
</g>
<g xmlns="http://www.w3.org/2000/svg">
</g>
<g xmlns="http://www.w3.org/2000/svg">
</g>
<g xmlns="http://www.w3.org/2000/svg">
</g>
<g xmlns="http://www.w3.org/2000/svg">
</g>
<g xmlns="http://www.w3.org/2000/svg">
</g>
<g xmlns="http://www.w3.org/2000/svg">
</g>
<g xmlns="http://www.w3.org/2000/svg">
</g>
<g xmlns="http://www.w3.org/2000/svg">
</g>
<g xmlns="http://www.w3.org/2000/svg">
</g>
</g></svg>
