<?xml version="1.0"?>
<svg xmlns="http://www.w3.org/2000/svg" xmlns:xlink="http://www.w3.org/1999/xlink" xmlns:svgjs="http://svgjs.com/svgjs" version="1.1" width="512" height="512" x="0" y="0" viewBox="0 0 501 501" style="enable-background:new 0 0 512 512" xml:space="preserve" class=""><g><g xmlns="http://www.w3.org/2000/svg"><path d="m12.75 307.338c-.253-1.185-2.359-2.373-2.595-3.565-3.328-16.84-4.931-34.301-4.616-52.19 2.347-133.291 111.921-240.728 245.233-240.583 135.185.147 244.728 109.781 244.728 245 0 16.348-1.601 32.322-4.655 47.773-.17.861-1.416 1.721-1.595 2.579-13.537 64.804-69.735 111.148-135.938 111.148h-205.798c-65.789 0-121.045-45.82-134.764-110.162z" fill="#0ca9cc" data-original="#3342ae" style="" class=""/><path d="m422.5 247.5c0 94.993-77.007 172-172 172s-172-77.007-172-172 77.007-172 172-172 172 77.007 172 172z" fill="#0ca9cc" data-original="#5766ce" style="" class=""/><path d="m371.349 159.054-26.418 52.837c-.949 1.898-2.613 3.341-4.625 4.012l-5.557 1.852c-5.18 1.727-10.53-2.129-10.53-7.589v-45.241c0-.885-.235-1.755-.681-2.519l-44.191-75.755 15.153-38.464h43.213l34.578 93.855c2.048 5.557 1.707 11.714-.942 17.012zm-208.062-110.867-34.578 93.855c-2.047 5.557-1.707 11.714.942 17.012l26.418 52.837c.949 1.898 2.613 3.341 4.626 4.012l5.557 1.852c5.18 1.727 10.53-2.129 10.53-7.589v-45.241c0-.885.235-1.755.681-2.519l44.191-75.755-17.154-38.464z" fill="#8cc5db" data-original="#8cc5db" style="" class=""/><path d="m150.709 142.042c-2.047 5.557-1.707 11.714.942 17.012l25.131 50.262v.849c0 5.461-5.349 9.316-10.53 7.589l-5.557-1.852c-2.013-.671-3.677-2.114-4.626-4.012l-26.418-52.837c-2.649-5.297-2.99-11.454-.942-17.012l34.578-93.855h22zm194.828 20.362-56.937-99.241-9.253 23.486 44.191 75.755c.446.765.681 1.634.681 2.519v45.241c0 5.461 5.35 9.316 10.53 7.589l5.557-1.852c2.013-.671 3.677-2.114 4.625-4.012l1.287-2.575v-44.392c0-.884-.235-1.753-.681-2.518z" fill="#65b1cf" data-original="#65b1cf" style=""/><path d="m171.848 306.825c3.56 14.239 2.667 29.228-2.558 42.944l-34.184 89.732c-2.879 7.558-12.032 10.484-18.761 5.998-1.408-.938-11.848-1.443-22.973-1.515-42.082-35.212-72.163-84.292-83.216-140.211l6.01-24.039c3.162-12.65 15.875-20.435 28.58-17.503l12.704 2.932c4.916 1.134 10.049.623 14.694-1.345 12.017-5.091 24.936-5.091 36.953 0 4.645 1.968 9.778 2.479 14.694 1.345l12.704-2.932c12.705-2.932 25.417 4.854 28.58 17.503zm318.997-3.052-6.01-24.039c-3.162-12.65-15.875-20.435-28.58-17.503l-12.704 2.932c-4.916 1.134-10.049.623-14.694-1.345-12.017-5.091-24.936-5.091-36.953 0-4.645 1.968-9.778 2.479-14.694 1.345l-12.704-2.932c-12.705-2.932-25.417 4.854-28.58 17.503l-6.773 27.091c-3.56 14.239-2.667 29.228 2.558 42.944l34.184 89.732c2.879 7.558 12.032 10.484 18.761 5.998 1.408-.938 11.848-1.443 22.973-1.515 42.082-35.212 72.163-84.292 83.216-140.211zm-160.974-103.419-6.618-26.472c-3.09-12.361-15.512-19.968-27.927-17.103l-12.414 2.865c-4.803 1.108-9.819.609-14.358-1.314-11.743-4.975-24.366-4.975-36.108 0-4.539 1.923-9.555 2.422-14.358 1.314l-12.414-2.865c-12.415-2.865-24.836 4.743-27.927 17.103l-6.618 26.472c-3.478 13.914-2.606 28.56 2.5 41.962l33.403 87.682c2.813 7.385 11.757 10.244 18.333 5.86 2.977-1.985 4.943-5.166 5.387-8.716l3.282-26.252s1.278-13.63 5.457-22.086c4.495-9.094 17.344-9.002 22.022 0 5.153 9.917 5.549 22.819 5.549 22.819l3.19 25.52c.444 3.55 2.41 6.731 5.387 8.716 6.575 4.384 15.519 1.524 18.333-5.86l33.403-87.682c5.102-13.403 5.975-28.049 2.496-41.963z" fill="#f5f0eb" data-original="#f5f0eb" style="" class=""/><path d="m132.487 398.19-3.487 19.866-41.25-1.056-36.571-18.503c-19.91-27.8-34.148-59.938-41.024-94.724l6.01-24.039c3.163-12.65 15.876-20.436 28.581-17.503l5.814 1.342c-45.06 108.177 81.927 134.617 81.927 134.617zm254.073 41.312c.378.991-.581 5.115-1.904 5.997 0 0-15.882 1.56-18.761-5.997l-34.184-89.733c-5.225-13.716-6.118-28.704-2.558-42.944l6.773-27.091c3.162-12.65 15.875-20.435 28.58-17.503l5.815 1.342c-22.488 69.927 16.239 175.929 16.239 175.929zm-100.731-112.359-3.19-25.52s-.396-12.902-5.549-22.819c-3.083-5.933-17.845-8.481-26.471-6.784 4.296.076 8.586 2.348 10.891 6.784 5.153 9.917 5.549 22.819 5.549 22.819l3.19 25.52c.444 3.55 2.41 6.731 5.387 8.716 4.698 3.132 10.606 2.566 14.622-.706l.001-.001c-2.439-1.991-4.035-4.855-4.43-8.009zm-58.605 2.855c.369.968.843 1.859 1.404 2.665-.87 1.246-1.972 2.333-3.264 3.195-6.575 4.384-15.519 1.524-18.333-5.86l-33.403-87.682c-5.106-13.402-5.978-28.048-2.5-41.962l6.618-26.472c3.09-12.361 15.512-19.968 27.927-17.103l5.682 1.311c-6.458 2.791-11.581 8.454-13.416 15.792l-6.618 26.472c-3.478 13.914-2.606 28.56 2.5 41.962z" fill="#dcd2cd" data-original="#dcd2cd" style="" class=""/><path d="m314.649 215.322c-2.013 13.431-9.94 30.92-19.358 30.944-3.311.008-5.778-2.145-6.427-2.727-7.127-6.396-.153-16.69-2.795-36.153-1.771-13.048-6.001-16.669-2.97-22.055 3.63-6.449 14.545-9.532 21.812-6.232 13.9 6.313 10.135 33.576 9.738 36.223zm-168.344 69.751c-7.436-3.378-18.607-.222-22.322 6.378-3.102 5.511 1.227 9.217 3.039 22.571 2.703 19.919-4.434 30.454 2.86 36.999.663.595 3.188 2.799 6.577 2.79 9.638-.025 17.751-17.922 19.811-31.668.406-2.709 4.258-30.609-9.965-37.07zm319.76 0c-7.436-3.378-18.607-.222-22.322 6.378-3.102 5.511 1.227 9.217 3.039 22.571 2.703 19.919-4.434 30.454 2.86 36.999.664.595 3.188 2.799 6.577 2.79 9.638-.025 17.751-17.922 19.811-31.668.406-2.709 4.258-30.609-9.965-37.07z" fill="#fff5f5" data-original="#fff5f5" style=""/><path d="m250.5 144.341c-30.093 0-54.487-24.395-54.487-54.487v-49.051c0-5.31 4.305-9.615 9.615-9.615h89.744c5.31 0 9.615 4.305 9.615 9.615v49.051c0 30.093-24.394 54.487-54.487 54.487z" fill="#c0dfeb" data-original="#c0dfeb" style="" class=""/><path d="m282.551 93.059c0 17.701-14.35 32.051-32.051 32.051s-32.051-14.35-32.051-32.051 14.35-32.051 32.051-32.051 32.051 14.35 32.051 32.051z" fill="#65b1cf" data-original="#65b1cf" style=""/><path d="m263.321 93.059c0 7.081-5.74 12.821-12.82 12.821-7.081 0-12.821-5.74-12.821-12.821s5.74-12.821 12.821-12.821c7.08.001 12.82 5.741 12.82 12.821z" fill="#3993b7" data-original="#3993b7" style="" class=""/><path d="m359.121 34.483c0 9.522-7.719 17.241-17.241 17.241h-182.759c-9.522 0-17.241-7.719-17.241-17.241 0-9.522 7.719-17.241 17.241-17.241h31.379c0-9.523 7.719-17.242 17.241-17.242h85.517c9.522 0 17.241 7.719 17.241 17.241h31.379c9.524 0 17.243 7.72 17.243 17.242z" fill="#65b1cf" data-original="#65b1cf" style=""/><path d="m360.241 41.983h-219.482c-4.142 0-7.5-3.358-7.5-7.5 0-4.142 3.358-7.5 7.5-7.5h219.483c4.142 0 7.5 3.358 7.5 7.5-.001 4.142-3.358 7.5-7.501 7.5z" fill="#c0dfeb" data-original="#c0dfeb" style="" class=""/><path d="m454.544 391.661c-43.91 65.911-118.905 109.339-204.044 109.339s-160.134-43.428-204.044-109.339c9.364 7.39 21.189 11.8 34.044 11.8h28.462c30.376 0 55-24.625 55-55v-24.039c0-4.78 3.874-8.654 8.654-8.654 4.779 0 8.654 3.874 8.654 8.654v24.039c0 30.375 24.624 55 55 55h28.462c30.376 0 55-24.625 55-55v-24.039c0-4.78 3.875-8.654 8.654-8.654 4.779 0 8.654 3.874 8.654 8.654v24.039c0 30.375 24.624 55 55 55h28.46c12.855 0 24.68-4.41 34.044-11.8z" fill="#e3a76f" data-original="#e3a76f" style=""/><path d="m420.5 403.461c12.855 0 24.68-4.41 34.044-11.8-11.991 17.999-26.301 34.322-42.501 48.542-33.096 16.673-70.491 26.062-110.078 26.062-65.76 0-125.469-25.908-169.477-68.075 18.606-8.818 31.474-27.771 31.474-49.729v-24.039c0-4.78 3.874-8.654 8.654-8.654 4.779 0 8.654 3.874 8.654 8.654v24.039c0 30.375 24.624 55 55 55h28.462c30.376 0 55-24.625 55-55v-24.039c0-4.78 3.875-8.654 8.654-8.654 4.779 0 8.654 3.874 8.654 8.654v24.039c0 30.375 24.624 55 55 55z" fill="#f2bb88" data-original="#f2bb88" style=""/></g></g></svg>
