<?xml version="1.0"?>
<svg xmlns="http://www.w3.org/2000/svg" xmlns:xlink="http://www.w3.org/1999/xlink" xmlns:svgjs="http://svgjs.com/svgjs" version="1.1" width="512" height="512" x="0" y="0" viewBox="0 0 512 512" style="enable-background:new 0 0 512 512" xml:space="preserve" class=""><g><path xmlns="http://www.w3.org/2000/svg" d="m488 487.158h-464v-224l68.255 9.75a319.945 319.945 0 0 0 87.547.409l76.198-10.159 68.255 9.75a319.946 319.946 0 0 0 87.547.409l76.198-10.159z" fill="#ffb1b4" data-original="#ffb1b4" style=""/><path xmlns="http://www.w3.org/2000/svg" d="m173.973 454.327a17.758 17.758 0 0 1 -17.757-17.757v-62.244a16 16 0 0 0 -16-16 16 16 0 0 0 -16 16v62.244a17.756 17.756 0 0 1 -17.756 17.757 17.756 17.756 0 0 1 -17.333-13.9l-4.046-18.2a262.052 262.052 0 0 0 -29.455-75.191 228.97 228.97 0 0 1 -30.67-130.824 51.707 51.707 0 0 1 51.589-48.219 51.707 51.707 0 0 1 39.139 17.917 32.408 32.408 0 0 0 49.063 0 51.707 51.707 0 0 1 39.139-17.917 51.707 51.707 0 0 1 51.59 48.219 228.971 228.971 0 0 1 -30.67 130.816 262.052 262.052 0 0 0 -29.455 75.191l-4.046 18.2a17.756 17.756 0 0 1 -17.332 13.908z" fill="#e4e4e2" data-original="#e4e4e2" style=""/><path xmlns="http://www.w3.org/2000/svg" d="m247.477 216.212a51.688 51.688 0 0 0 -47.356-48.012 51.655 51.655 0 0 0 -35.373 17.713 32.167 32.167 0 0 1 -28.531 10.814 32.168 32.168 0 0 1 -28.532-10.814 51.659 51.659 0 0 0 -35.373-17.713 51.688 51.688 0 0 0 -47.356 48.015 228.965 228.965 0 0 0 30.669 130.812 262.052 262.052 0 0 1 29.455 75.191l4.045 18.2a17.719 17.719 0 0 0 13.369 13.4 17.735 17.735 0 0 0 13.722-17.254v-62.238a15.8 15.8 0 0 1 20-15.434 15.805 15.805 0 0 1 20 15.434v62.244a17.734 17.734 0 0 0 13.72 17.254 17.719 17.719 0 0 0 13.37-13.4l4.045-18.2a262.04 262.04 0 0 1 29.455-75.191 228.978 228.978 0 0 0 30.671-130.821z" fill="#ebebeb" data-original="#ebebeb" style="" class=""/><path xmlns="http://www.w3.org/2000/svg" d="m142.131 235.6a70.189 70.189 0 0 1 -40.532-12.91 8 8 0 1 1 9.235-13.071 54.14 54.14 0 0 0 60.3 1.551l2.812-1.777a8 8 0 1 1 8.547 13.523l-2.812 1.778a70.191 70.191 0 0 1 -37.55 10.906z" fill="#dbdbdb" data-original="#dbdbdb" style=""/><path xmlns="http://www.w3.org/2000/svg" d="m435.888 167.992a51.71 51.71 0 0 0 -39.14 17.918 32.408 32.408 0 0 1 -49.063 0 51.706 51.706 0 0 0 -90.728 30.3 228.838 228.838 0 0 0 13.871 94.948h202.778a228.857 228.857 0 0 0 13.871-94.948 51.708 51.708 0 0 0 -51.589-48.218z" fill="#e4e4e2" data-original="#e4e4e2" style=""/><path xmlns="http://www.w3.org/2000/svg" d="m479.477 216.212a51.687 51.687 0 0 0 -47.356-48.012 51.657 51.657 0 0 0 -35.373 17.713 32.165 32.165 0 0 1 -28.531 10.814 32.169 32.169 0 0 1 -28.532-10.814 51.657 51.657 0 0 0 -35.372-17.713 51.686 51.686 0 0 0 -47.356 48.015 228.838 228.838 0 0 0 13.871 94.948h194.778a228.857 228.857 0 0 0 13.871-94.951z" fill="#efefef" data-original="#efefef" style=""/><path xmlns="http://www.w3.org/2000/svg" d="m335.998 311.158h80v32h-80z" fill="#0ca9cc" data-original="#4298d1" style="" class=""/><path xmlns="http://www.w3.org/2000/svg" d="m343.998 343.158h64l-16 96h-32z" fill="#0ca9cc" data-original="#3e8cc7" style="" class=""/><path xmlns="http://www.w3.org/2000/svg" d="m343.991 383.157a8 8 0 0 1 -1.93-15.762l64-16a8 8 0 0 1 3.875 15.524l-64 16a7.945 7.945 0 0 1 -1.945.238z" fill="#0ca9cc" data-original="#3474a6" style="" class=""/><path xmlns="http://www.w3.org/2000/svg" d="m343.991 407.157a8 8 0 0 1 -1.93-15.762l64-16a8 8 0 0 1 3.875 15.524l-64 16a7.945 7.945 0 0 1 -1.945.238z" fill="#0ca9cc" data-original="#3474a6" style="" class=""/><path xmlns="http://www.w3.org/2000/svg" d="m343.991 431.157a8 8 0 0 1 -1.93-15.762l64-16a8 8 0 0 1 3.875 15.524l-64 16a7.945 7.945 0 0 1 -1.945.238z" fill="#0ca9cc" data-original="#3474a6" style="" class=""/><path xmlns="http://www.w3.org/2000/svg" d="m247.998 359.157h16v16h-16z" fill="#f0a5a8" data-original="#f0a5a8" style="" class=""/><path xmlns="http://www.w3.org/2000/svg" d="m55.998 439.157h16v16h-16z" fill="#f0a5a8" data-original="#f0a5a8" style="" class=""/><path xmlns="http://www.w3.org/2000/svg" d="m127.998 303.157h16v16h-16z" fill="#e4e4e2" data-original="#e4e4e2" style=""/><path xmlns="http://www.w3.org/2000/svg" d="m175.998 319.157h16v16h-16z" fill="#e4e4e2" data-original="#e4e4e2" style=""/><path xmlns="http://www.w3.org/2000/svg" d="m87.998 335.157h16v16h-16z" fill="#e4e4e2" data-original="#e4e4e2" style=""/><g xmlns="http://www.w3.org/2000/svg" fill="#f0a5a8"><path d="m295.998 335.157h16v16h-16z" fill="#f0a5a8" data-original="#f0a5a8" style="" class=""/><path d="m295.998 383.157h16v16h-16z" fill="#f0a5a8" data-original="#f0a5a8" style="" class=""/><path d="m247.998 415.157h16v16h-16z" fill="#f0a5a8" data-original="#f0a5a8" style="" class=""/><path d="m295.998 431.157h16v16h-16z" fill="#f0a5a8" data-original="#f0a5a8" style="" class=""/><path d="m439.998 335.157h16v16h-16z" fill="#f0a5a8" data-original="#f0a5a8" style="" class=""/><path d="m439.998 383.157h16v16h-16z" fill="#f0a5a8" data-original="#f0a5a8" style="" class=""/><path d="m439.998 431.157h16v16h-16z" fill="#f0a5a8" data-original="#f0a5a8" style="" class=""/></g><path xmlns="http://www.w3.org/2000/svg" d="m423.998 127.992h16v16h-16z" fill="#0ca9cc" data-original="#bef5fa" style="" class=""/><path xmlns="http://www.w3.org/2000/svg" d="m423.998 95.992h16v16h-16z" fill="#0ca9cc" data-original="#bef5fa" style="" class=""/><path xmlns="http://www.w3.org/2000/svg" d="m407.998 111.992h16v16h-16z" fill="#0ca9cc" data-original="#bef5fa" style="" class=""/><path xmlns="http://www.w3.org/2000/svg" d="m439.998 111.992h16v16h-16z" fill="#0ca9cc" data-original="#bef5fa" style="" class=""/><path xmlns="http://www.w3.org/2000/svg" d="m319.998 87.992h16v16h-16z" fill="#0ca9cc" data-original="#b6eaef" style="" class=""/><path xmlns="http://www.w3.org/2000/svg" d="m319.998 39.992h16v16h-16z" fill="#0ca9cc" data-original="#b6eaef" style="" class=""/><path xmlns="http://www.w3.org/2000/svg" d="m295.998 63.992h16v16h-16z" fill="#0ca9cc" data-original="#b6eaef" style="" class=""/><path xmlns="http://www.w3.org/2000/svg" d="m343.998 63.992h16v16h-16z" fill="#0ca9cc" data-original="#b6eaef" style="" class=""/><path xmlns="http://www.w3.org/2000/svg" d="m345.471 351.993h61.055l1.472-8.835h-64z" fill="#0ca9cc" data-original="#3474a6" style="" class=""/><path xmlns="http://www.w3.org/2000/svg" d="m335.998 311.158h80v16h-80z" fill="#0ca9cc" data-original="#4090c6" style="" class=""/><path xmlns="http://www.w3.org/2000/svg" d="m374.131 235.6a70.189 70.189 0 0 1 -40.531-12.91 8 8 0 1 1 9.234-13.071 54.139 54.139 0 0 0 60.3 1.551l2.813-1.777a8 8 0 1 1 8.547 13.523l-2.813 1.778a70.188 70.188 0 0 1 -37.55 10.906z" fill="#dbdbdb" data-original="#dbdbdb" style=""/><path xmlns="http://www.w3.org/2000/svg" d="m24.435 474.596h463.564v12.562h-463.564z" fill="#f6a9ac" data-original="#f6a9ac" style="" class=""/></g></svg>
