<?xml version="1.0"?>
<svg xmlns="http://www.w3.org/2000/svg" xmlns:xlink="http://www.w3.org/1999/xlink" xmlns:svgjs="http://svgjs.com/svgjs" version="1.1" width="512" height="512" x="0" y="0" viewBox="0 0 512 512" style="enable-background:new 0 0 512 512" xml:space="preserve" class=""><g><path xmlns="http://www.w3.org/2000/svg" d="m184 7h144v144h-144zm0 0" fill="#ffffff" data-original="#91e2ff" style="" class=""/><path xmlns="http://www.w3.org/2000/svg" d="m184 7h16v144h-16zm0 0" fill="#e6eced" data-original="#22adf2" style="" class=""/><path xmlns="http://www.w3.org/2000/svg" d="m24 311h128v192h-128zm0 0" fill="#0ca9cc" data-original="#adc4d9" style="" class=""/><path xmlns="http://www.w3.org/2000/svg" d="m136 439h16v64h-16zm0 0" fill="#7994ab" data-original="#7994ab" style="" class=""/><path xmlns="http://www.w3.org/2000/svg" d="m24 311h128v128h-128zm0 0" fill="#ffffff" data-original="#91e2ff" style="" class=""/><path xmlns="http://www.w3.org/2000/svg" d="m136 311h16v128h-16zm0 0" fill="#e6eced" data-original="#22adf2" style="" class=""/><path xmlns="http://www.w3.org/2000/svg" d="m152 183h208v320h-208zm0 0" fill="#0ca9cc" data-original="#adc4d9" style="" class=""/><path xmlns="http://www.w3.org/2000/svg" d="m184 215h144v144h-144zm0 0" fill="#ffffff" data-original="#91e2ff" style="" class=""/><path xmlns="http://www.w3.org/2000/svg" d="m184 215h16v144h-16zm0 0" fill="#e6eced" data-original="#22adf2" style="" class=""/><path xmlns="http://www.w3.org/2000/svg" d="m360 311h128v192h-128zm0 0" fill="#0ca9cc" data-original="#adc4d9" style="" class=""/><path xmlns="http://www.w3.org/2000/svg" d="m360 439h16v64h-16zm0 0" fill="#7994ab" data-original="#7994ab" style="" class=""/><path xmlns="http://www.w3.org/2000/svg" d="m360 311h128v128h-128zm0 0" fill="#ffffff" data-original="#91e2ff" style="" class=""/><path xmlns="http://www.w3.org/2000/svg" d="m360 311h16v128h-16zm0 0" fill="#e6eced" data-original="#22adf2" style="" class=""/><path xmlns="http://www.w3.org/2000/svg" d="m224 503v-64h64v64" fill="#ffffff" data-original="#91e2ff" style="" class=""/><g xmlns="http://www.w3.org/2000/svg" fill="#fff"><path d="m216 391.5h16v15h-16zm0 0" fill="#ffffff" data-original="#ffffff" style="" class=""/><path d="m248 391.5h16v15h-16zm0 0" fill="#ffffff" data-original="#ffffff" style="" class=""/><path d="m280 391.5h16v15h-16zm0 0" fill="#ffffff" data-original="#ffffff" style="" class=""/><path d="m280 31h-48c-8.835938 0-16 7.164062-16 16v20c0 5.917969 3.222656 11.074219 8 13.84375v30.15625c0 8.835938 7.164062 16 16 16l5.46875-16.410156c1.511719-4.53125 5.753906-7.589844 10.53125-7.589844s9.019531 3.058594 10.53125 7.589844l5.46875 16.410156c8.835938 0 16-7.164062 16-16v-30.15625c4.777344-2.769531 8-7.925781 8-13.84375v-20c0-8.835938-7.164062-16-16-16zm0 0" fill="#ffffff" data-original="#ffffff" style="" class=""/></g><path xmlns="http://www.w3.org/2000/svg" d="m240 111v-32h-16v32c0 8.835938 7.164062 16 16 16l2.484375-7.460938c-1.5625-2.472656-2.484375-5.394531-2.484375-8.539062zm0 0" fill="#c2deed" data-original="#c2deed" style=""/><path xmlns="http://www.w3.org/2000/svg" d="m240 83h-8c-8.839844 0-16-7.160156-16-16v-20c0-8.839844 7.160156-16 16-16h16c-8.839844 0-16 7.160156-16 16v20c0 5.921875 3 11.101562 8 13.859375zm0 0" fill="#c2deed" data-original="#c2deed" style=""/><path xmlns="http://www.w3.org/2000/svg" d="m335 208h-159v159h159zm-144 15h33v33h-33zm0 48h33v33h-33zm81 81h-81v-33h33v16h15v-16h33zm0-48h-33v-33h33zm0-48h-33v-33h33zm48 96h-33v-33h33zm0-48h-33v-33h33zm0-48h-33v-33h33zm0 0" fill="#000000" data-original="#000000" style="" class=""/><path xmlns="http://www.w3.org/2000/svg" d="m495 495v-191h-128v-128h-56v-17h24v-48h-15v33h-129v-129h129v80h15v-95h-159v159h24v17h-56v160h-49v-17h33v-15h-112v191h-16v15h512v-15zm-464-176h49v17h-49zm0 32h49v17h-49zm0 32h49v17h-49zm0 32h49v17h-49zm113 80h-113v-48h113zm0-63h-49v-17h49zm0-32h-49v-17h49zm0-32h-49v-17h49zm223-49h49v17h-49zm0 32h49v17h-49zm0 32h49v17h-49zm0 32h49v17h-49zm-152-256h81v17h-81zm33 336h-17v-48h17zm32 0h-17v-48h17zm72 0h-57v-48h17v-15h-112v15h16v48h-57v-304h193zm128 0h-113v-48h97v-15h-33v-17h49zm0-95h-49v-17h49zm0-32h-49v-17h49zm0-32h-49v-17h49zm0 0" fill="#000000" data-original="#000000" style="" class=""/><path xmlns="http://www.w3.org/2000/svg" d="m240 135h5.40625l7.179688-21.789062c.492187-1.472657 1.863281-2.585938 3.414062-2.585938 1.554688 0 2.925781 1.175781 3.414062 2.648438l7.183594 21.726562h5.402344c12.957031 0 23-11.042969 23-24v-26.359375c5-4.308594 8-10.617187 8-17.640625v-20c0-12.957031-10.042969-23-23-23h-48c-12.957031 0-24 10.042969-24 23v20c0 7.023438 4 13.332031 8 17.640625v26.359375c0 12.957031 11.042969 24 24 24zm-17-88c0-4.6875 4.3125-8 9-8h48c4.6875 0 8 3.3125 8 8v20c0 4.6875-3.3125 9-8 9h-8v15h8v20c0 2.867188-1.179688 5.410156-3.359375 6.949219l-3.121094-9.730469c-2.535156-7.609375-9.5625-12.71875-17.582031-12.71875s-15.078125 5.109375-17.613281 12.71875l-3.480469 9.730469c-2.183594-1.539063-3.84375-4.082031-3.84375-6.949219v-20.511719c1 0 .832031.511719 1 .511719h8v-15h-8c-4.6875 0-9-4.3125-9-9zm0 0" fill="#000000" data-original="#000000" style="" class=""/></g></svg>
