<?xml version="1.0"?>
<svg xmlns="http://www.w3.org/2000/svg" xmlns:xlink="http://www.w3.org/1999/xlink" xmlns:svgjs="http://svgjs.com/svgjs" version="1.1" width="512" height="512" x="0" y="0" viewBox="0 0 512 512" style="enable-background:new 0 0 512 512" xml:space="preserve" class=""><g><path xmlns="http://www.w3.org/2000/svg" d="M24,40S216,152,256,152H488V456H24Z" style="" fill="#fc9495" data-original="#fc9495"/><path xmlns="http://www.w3.org/2000/svg" d="M488,152v32H256C216,184,24,80,24,80V40S216,152,256,152Z" style="" fill="#ea898a" data-original="#ea898a" class=""/><path xmlns="http://www.w3.org/2000/svg" d="M288.514,294.953c-21.262,23.915-43.851,25.241-81.06,67.092s-65.113,49.156-71.091,43.84c-11.958-10.631,3.989-28.567,30.567-58.46,0,0,21.262-23.915,9.305-34.546s-33.22,13.283-33.22,13.283c-26.578,29.894-42.525,47.83-54.482,37.2-5.979-5.316-1.989-33.883,35.22-75.734s35.882-64.439,57.145-88.354S242.021,178.684,248,184s13.284,33.22,13.284,33.22,28.567,3.989,34.546,9.305S309.776,271.038,288.514,294.953Z" style="" fill="#ffffff" data-original="#e8edf1" class=""/><path xmlns="http://www.w3.org/2000/svg" d="M432,128c0,32-16,48-16,104s-16,80-24,80c-16,0-16-24-16-64,0,0,0-32-16-32s-16,32-16,32c0,40,0,64-16,64-8,0-24-24-24-80s-16-72-16-104,32-56,40-56,32,16,32,16,24-16,32-16S432,96,432,128Z" style="" fill="#ffffff" data-original="#e8edf1" class=""/><path xmlns="http://www.w3.org/2000/svg" d="M488,144H438.736A102.734,102.734,0,0,0,440,128c0-15.594-6.767-31.7-19.054-45.352C412.863,73.667,400.357,64,392,64c-7.932,0-22.833,8.624-32,14.454C350.833,72.624,335.932,64,328,64c-8.357,0-20.863,9.667-28.946,18.648C286.767,96.3,280,112.406,280,128a102.734,102.734,0,0,0,1.264,16H256C228.243,144,104.46,77.672,28.031,33.09A8,8,0,0,0,16,40V456a8,8,0,0,0,8,8H488a8,8,0,0,0,8-8V152A8,8,0,0,0,488,144Zm-8,16v16H430.959c.8-3.106,1.617-6.081,2.413-8.983.646-2.355,1.285-4.686,1.9-7.017ZM328.187,80.029c3.762.566,16.323,7.264,27.376,14.628a8.007,8.007,0,0,0,8.874,0c11.106-7.4,23.737-14.128,27.354-14.634C397.588,81.541,424,101.146,424,128c0,12.7-2.807,22.934-6.058,34.784C413.513,178.933,408,199.031,408,232c0,50.915-13.25,69.466-16.736,71.966-1.542-.2-3.778-1.515-5.393-10.4C384,283.278,384,267.71,384,248a82.98,82.98,0,0,0-2.239-17.94C376.963,210.866,366.067,208,360,208s-16.963,2.866-21.761,22.06A82.98,82.98,0,0,0,336,248c0,19.71,0,35.278-1.871,45.569-1.615,8.882-3.851,10.2-5.393,10.4C325.25,301.466,312,282.915,312,232c0-32.969-5.513-53.067-9.942-69.216C298.807,150.934,296,140.7,296,128,296,101.182,322.343,81.592,328.187,80.029ZM181.55,306.9c-4.534-4.031-14.582-9.128-30.92,2.027a82.94,82.94,0,0,0-13.595,11.922c-13.1,14.729-23.44,26.364-31.676,32.81-7.107,5.565-9.655,5.064-10.937,4.187-.944-4.186,1.479-26.853,35.309-64.9,21.906-24.638,31.141-43.321,38.56-58.333,5.445-11.016,10.147-20.53,18.585-30.02,15.055-16.934,40.735-17.516,51.6-15.651q2.049.561,3.964,1.028c.126.053.26.106.366.159,2.435,2.922,7.373,16.274,10.74,29.122a8,8,0,0,0,6.632,5.9c13.212,1.845,27.121,5.21,30.165,7.239,3.325,4.986,10.036,37.187-7.806,57.256-8.438,9.49-17.337,15.273-27.64,21.97-14.041,9.125-31.515,20.483-53.42,45.121-33.831,38.05-56.053,43.107-60.326,42.664-1.022-1.171-1.816-3.643,2.878-11.353,5.439-8.934,15.782-20.567,28.88-35.3a82.978,82.978,0,0,0,10.248-14.895C192.323,320.312,186.084,310.932,181.55,306.9Zm86.076-96.814A180.173,180.173,0,0,0,261.531,192h31.082a203.719,203.719,0,0,1,2.973,25.225C287.845,213.791,275.907,211.424,267.626,210.086ZM121.263,103.073C147.914,117.153,229.017,160,256,160h28.731c.612,2.331,1.251,4.662,1.9,7.017.8,2.9,1.611,5.877,2.413,8.983H256a41.275,41.275,0,0,1-8.325-1.1,39.517,39.517,0,0,0-6.949-1.774c-47-13.525-159.51-71.4-208.726-97.9V53.845C49.626,63.937,84.394,83.6,121.263,103.073ZM32,448V93.38c31.952,17.059,113.286,59.692,170.713,82.925-11.158,3.682-20.732,9.71-27.794,17.653-9.87,11.1-15.262,22.011-20.971,33.562-7.359,14.888-15.7,31.762-36.174,54.792-21.465,24.141-31.052,42.727-35.315,54.067-5.866,15.6-5.6,27.31.758,32.96,8.721,7.755,19.489,6.718,32-3.081,9.371-7.336,20.138-19.446,33.772-34.78,6.348-7.141,18.329-15.816,21.925-12.621,3.62,3.219-3.49,15.926-9.971,23.255-13.631,15.332-24.4,27.442-30.586,37.607-8.266,13.577-8.035,24.391.685,32.145,2.676,2.38,6.29,3.561,10.686,3.561,6.043,0,13.562-2.236,22.136-6.665,10.763-5.561,28.1-17.257,49.564-41.4,20.474-23.028,36.257-33.286,50.182-42.337,10.8-7.021,21.009-13.654,30.878-24.754a57.835,57.835,0,0,0,8.368-12.4C309.1,308.959,318.723,320,328,320c11.669,0,19.027-7.93,21.871-23.569C352,284.722,352,268.517,352,248.011c.026-9.79,3.156-24.011,8-24.011s7.974,14.221,8,24c0,20.517,0,36.722,2.129,48.431C372.973,312.07,380.331,320,392,320c8.5,0,16.482-8.569,22.467-24.128C418.816,284.564,424,264.305,424,232a218.15,218.15,0,0,1,3.387-40H480V448Z" fill="#000000" data-original="#000000" style="" class=""/></g></svg>
