<?xml version="1.0"?>
<svg xmlns="http://www.w3.org/2000/svg" xmlns:xlink="http://www.w3.org/1999/xlink" xmlns:svgjs="http://svgjs.com/svgjs" version="1.1" width="512" height="512" x="0" y="0" viewBox="0 0 512 512" style="enable-background:new 0 0 512 512" xml:space="preserve" class=""><g><path xmlns="http://www.w3.org/2000/svg" d="m351.11 309.77a40.588 40.588 0 0 1 13.3 24.11l10.03-5.29 60.39-32.58 7.25-3.91a32.973 32.973 0 0 1 43.92 12.01l-142.33 97.72a99.6 99.6 0 0 1 -61.98 8.75l-82.27-15.15a30.58 30.58 0 0 0 -22.38 2.97l-44.56 28.17-31.13-102.1.27-.08a53.386 53.386 0 0 0 25.83-12.64l13.63-12.13a91.06 91.06 0 0 1 94.42-9.22l5.65 2.73a65.092 65.092 0 0 0 28.33 6.49h54.74a40.521 40.521 0 0 1 26.89 10.15z" fill="#f7caa5" data-original="#f7caa5" style="" class=""/><path xmlns="http://www.w3.org/2000/svg" d="m434.79 295.93.04.08-60.39 32.58-10.03 5.29a40.588 40.588 0 0 0 -13.3-24.11l38.82-20.92 9.87-5.32c12.21-6.18 28.22.5 34.99 12.4z" fill="#edb288" data-original="#edb288" style="" class=""/><path xmlns="http://www.w3.org/2000/svg" d="m389.45 287.96.48.89-38.82 20.92a40.521 40.521 0 0 0 -26.89-10.15h-12.14l32.28-17.55a37.317 37.317 0 0 1 45.09 5.89z" fill="#edb288" data-original="#edb288" style="" class=""/><path xmlns="http://www.w3.org/2000/svg" d="m256.33 80.51.01-.03a2.325 2.325 0 0 1 1.22-1.19c15.21-6.35 18.35-12.58 35.51-17.26 65.64-17.89 72.3 65.7 41.49 82.05-25.92 13.76-23.62 15.14-21.85 38.34 1.91 25.03-1.65 57.19-17.85 73.92a7.974 7.974 0 0 1 -2.92 1.58 7.184 7.184 0 0 1 -9.57-8.11s5.67-54.22-17.28-82.87a11.011 11.011 0 0 0 -3.95-3.1 11.621 11.621 0 0 0 -4.91-1.09 11.342 11.342 0 0 0 -8.78 4.1c-23.4 28.48-17.67 82.96-17.67 82.96a7.17 7.17 0 0 1 -9.56 8.11 8.1 8.1 0 0 1 -2.93-1.58c-16.19-16.73-19.76-48.89-17.84-73.92 1.77-23.2 4.08-24.61-21.85-38.34-30.1-15.94-24.83-90.86 36.16-82.77 15.19 2.02 34.75 15.31 42.11 18.97.15.08.31.15.46.23z" fill="#0ca9cc" data-original="#f8ec7d" style="" class=""/><path xmlns="http://www.w3.org/2000/svg" d="m132.48 426.57 14.36 47.1h-98.87l-21.97-180.17h65.91l9.44 30.97zm-27.07 15.57a13.185 13.185 0 1 0 -13.18 13.19 13.179 13.179 0 0 0 13.18-13.19z" fill="#0ca9cc" data-original="#e48e66" style="" class=""/><path xmlns="http://www.w3.org/2000/svg" d="m92.23 428.96a13.185 13.185 0 1 1 -13.19 13.18 13.179 13.179 0 0 1 13.19-13.18z" fill="#0ca9cc" data-original="#f8ec7d" style="" class=""/><g xmlns="http://www.w3.org/2000/svg" fill="#63316d"><path d="m337.372 149.38c18.816-9.985 26.567-40.855 16.588-66.062-9.867-24.925-33.215-35.048-62.469-27.077-10.824 2.952-16.726 6.612-22.434 10.15a91.463 91.463 0 0 1 -13.165 7.09c-1.121-.63-2.4-1.366-3.77-2.159-9.823-5.672-24.668-14.244-37.573-15.96-41.981-5.574-54.988 24.512-57.978 33.864-7.615 23.817.559 50.8 18.221 60.157 10.37 5.491 16.376 9.089 18.41 12.376 1.646 2.658 1.393 6.611.664 15.3-.128 1.521-.264 3.151-.4 4.9-.974 12.692-2.444 55.866 19.517 78.559a13.193 13.193 0 0 0 5.29 3.076 13.444 13.444 0 0 0 4.367.728 13.1 13.1 0 0 0 13.089-15.322c-.324-3.483-4.492-52.962 16.36-78.34a5.31 5.31 0 0 1 4.141-1.906 5.655 5.655 0 0 1 2.372.526 5.051 5.051 0 0 1 1.805 1.415c20.5 25.587 16.324 74.971 16.013 78.32a13.18 13.18 0 0 0 17.513 14.568 12.95 12.95 0 0 0 5.238-3.065c8.259-8.53 14.075-20.923 17.287-36.834a156.033 156.033 0 0 0 2.234-41.717c-.132-1.748-.269-3.374-.4-4.891-.729-8.688-.982-12.641.663-15.3 2.036-3.282 8.045-6.889 18.417-12.396zm-28.615 6.077c-3.8 6.138-3.252 12.694-2.419 22.618.125 1.489.259 3.085.39 4.8 1.787 23.424-1.469 53.778-15.945 69.046a6.8 6.8 0 0 1 -.787.322 1.342 1.342 0 0 1 -1.65-.551 1.321 1.321 0 0 1 -.075-.8c.028-.154.05-.309.067-.464.241-2.314 5.647-57.019-18.561-87.239a17.1 17.1 0 0 0 -6.1-4.791 17.72 17.72 0 0 0 -7.45-1.654 17.267 17.267 0 0 0 -13.416 6.291c-24.71 30.074-19.246 85.07-19 87.4.018.166.042.332.074.5a1.3 1.3 0 0 1 -.079.773 1.334 1.334 0 0 1 -1.6.552 8.1 8.1 0 0 1 -.853-.346c-14.469-15.252-17.722-45.614-15.925-69.038.131-1.721.265-3.321.39-4.814.833-9.924 1.384-16.479-2.418-22.62-3.536-5.712-9.953-9.757-23-16.664-12.553-6.649-18.234-27.667-12.406-45.9 6.157-19.257 22.554-28.6 44.968-25.622 10.545 1.4 24.15 9.258 33.153 14.456 2.776 1.6 5.178 2.99 7.018 3.909.117.061.241.122.383.19.051.027.1.053.155.079 8.756 4.314 21.943 9.751 35.312 7.137a6 6 0 1 0 -2.3-11.778c-4.827.944-10.216.463-16.515-1.52 1.888-1.085 3.59-2.139 5.206-3.141 5.434-3.369 10.127-6.278 19.268-8.771 31.634-8.617 43.752 8.783 48.158 19.918 7.6 19.191 2.224 44-11.057 51.046-13.043 6.924-19.455 10.975-22.986 16.676z" fill="#036378" data-original="#63316d" style="" class=""/><path d="m491.141 301.017a38.92 38.92 0 0 0 -51.909-14.2l-2.523 1.362c-9.749-11.905-26.71-16.536-39.619-10l-.137.071-5.8 3.127a43.374 43.374 0 0 0 -49.725-4.538l-30.874 16.781h-41.074a59.424 59.424 0 0 1 -25.72-5.892l-5.647-2.728a96.675 96.675 0 0 0 -100.641 9.827q-.2.149-.381.312l-13.632 12.133a47.349 47.349 0 0 1 -18.025 10.013l-7.785-25.533a6 6 0 0 0 -5.739-4.252h-65.91a6 6 0 0 0 -5.956 6.727l21.97 180.173a6 6 0 0 0 5.956 5.274h98.87a6 6 0 0 0 5.739-7.75l-13.025-42.724 40.546-25.638a24.466 24.466 0 0 1 17.855-2.313c.124.031.249.059.375.081l82.287 15.153a106.292 106.292 0 0 0 65.713-9.276 5.862 5.862 0 0 0 .733-.431l142.337-97.719a6 6 0 0 0 1.741-8.04zm-88.568-12.165c7.205-3.607 16.917-1.152 23.275 5.187l-54.206 29.244-3.294 1.737a46.791 46.791 0 0 0 -7.514-13.677zm-55.346-1.51.142-.08a31.35 31.35 0 0 1 32.079.42l-27.688 14.918a46.6 46.6 0 0 0 -17.935-7.976zm-293.945 180.328-20.506-168.17h54.691l51.271 168.17zm287.349-71.031a94.249 94.249 0 0 1 -57.854 8.041l-82.089-15.118a36.438 36.438 0 0 0 -26.578 3.6c-.093.053-.185.107-.276.165l-37.909 23.965-26.985-88.51a59.34 59.34 0 0 0 22.5-12.552l13.443-11.963a84.718 84.718 0 0 1 88.009-8.466l5.647 2.728a71.479 71.479 0 0 0 30.942 7.089h54.74a34.709 34.709 0 0 1 34.127 28.4l-39.844-1.8a236.8 236.8 0 0 0 -43.157 1.991 6 6 0 0 0 1.647 11.887 224.627 224.627 0 0 1 40.967-1.89l46.689 2.11c.09 0 .181.006.271.006a6 6 0 0 0 6-6c0-1.017-.041-2.029-.106-3.035l6.475-3.415 67.642-36.491a26.939 26.939 0 0 1 32.533 5.313z" fill="#036378" data-original="#63316d" style="" class=""/><path d="m73.04 442.14a19.185 19.185 0 1 0 19.19-19.18 19.211 19.211 0 0 0 -19.19 19.18zm19.19-7.18a7.185 7.185 0 1 1 -7.19 7.18 7.188 7.188 0 0 1 7.19-7.18z" fill="#036378" data-original="#63316d" style="" class=""/><path d="m454.56 106.39a6 6 0 0 0 -6-6h-34.94a6 6 0 0 0 0 12h34.94a6 6 0 0 0 6-6z" fill="#036378" data-original="#63316d" style="" class=""/><path d="m400.535 70.51a5.977 5.977 0 0 0 3.593-1.2l34.939-26.18a6 6 0 0 0 -7.195-9.6l-34.939 26.18a6 6 0 0 0 3.6 10.8z" fill="#036378" data-original="#63316d" style="" class=""/><path d="m396.933 153.072 34.939 26.18a6 6 0 0 0 7.195-9.6l-34.939-26.18a6 6 0 0 0 -7.195 9.6z" fill="#036378" data-original="#63316d" style="" class=""/><path d="m104.38 106.39a6 6 0 0 0 -6-6h-34.94a6 6 0 1 0 0 12h34.94a6 6 0 0 0 6-6z" fill="#036378" data-original="#63316d" style="" class=""/><path d="m76.535 180.451a5.976 5.976 0 0 0 3.593-1.2l34.939-26.18a6 6 0 0 0 -7.195-9.6l-34.939 26.18a6 6 0 0 0 3.6 10.8z" fill="#036378" data-original="#63316d" style="" class=""/><path d="m115.067 59.708-34.939-26.18a6 6 0 0 0 -7.195 9.6l34.939 26.18a6 6 0 0 0 7.195-9.6z" fill="#036378" data-original="#63316d" style="" class=""/></g></g></svg>
